<svg width="13" height="13" viewBox="0 0 13 13" fill="none" xmlns="http://www.w3.org/2000/svg">
<mask id="path-1-outside-1" maskUnits="userSpaceOnUse" x="-0.478516" y="-0.292969" width="14" height="14" fill="black">
<rect fill="white" x="-0.478516" y="-0.292969" width="14" height="14"/>
<path fill-rule="evenodd" clip-rule="evenodd" d="M1.52148 2.45819C1.52148 2.04334 1.85779 1.70703 2.27264 1.70703C7.13992 1.70703 11.0856 5.65274 11.0856 10.52C11.0856 10.9349 10.7493 11.2712 10.3345 11.2712C9.91961 11.2712 9.5833 10.9349 9.5833 10.52C9.5833 6.48244 6.31021 3.20935 2.27264 3.20935C1.85779 3.20935 1.52148 2.87304 1.52148 2.45819ZM1.52148 5.66757C1.52148 5.25271 1.85779 4.91641 2.27264 4.91641C5.36704 4.91641 7.87555 7.42491 7.87555 10.5193C7.87555 10.9342 7.53924 11.2705 7.12439 11.2705C6.70953 11.2705 6.37323 10.9342 6.37323 10.5193C6.37323 8.25462 4.53733 6.41873 2.27264 6.41873C1.85779 6.41873 1.52148 6.08242 1.52148 5.66757ZM1.87614 8.22381C3.36281 8.22381 4.56799 9.42899 4.56799 10.9157H1.84268L1.87614 8.22381Z"/>
</mask>
<path fill-rule="evenodd" clip-rule="evenodd" d="M1.52148 2.45819C1.52148 2.04334 1.85779 1.70703 2.27264 1.70703C7.13992 1.70703 11.0856 5.65274 11.0856 10.52C11.0856 10.9349 10.7493 11.2712 10.3345 11.2712C9.91961 11.2712 9.5833 10.9349 9.5833 10.52C9.5833 6.48244 6.31021 3.20935 2.27264 3.20935C1.85779 3.20935 1.52148 2.87304 1.52148 2.45819ZM1.52148 5.66757C1.52148 5.25271 1.85779 4.91641 2.27264 4.91641C5.36704 4.91641 7.87555 7.42491 7.87555 10.5193C7.87555 10.9342 7.53924 11.2705 7.12439 11.2705C6.70953 11.2705 6.37323 10.9342 6.37323 10.5193C6.37323 8.25462 4.53733 6.41873 2.27264 6.41873C1.85779 6.41873 1.52148 6.08242 1.52148 5.66757ZM1.87614 8.22381C3.36281 8.22381 4.56799 9.42899 4.56799 10.9157H1.84268L1.87614 8.22381Z" fill="#BB6BD9"/>
<path d="M2.27264 3.20935L2.27264 1.70935H2.27264V3.20935ZM4.56799 10.9157V12.4157H6.06799V10.9157H4.56799ZM1.87614 8.22381V6.72381H0.394672L0.376257 8.20516L1.87614 8.22381ZM1.84268 10.9157L0.342794 10.897L0.323915 12.4157H1.84268V10.9157ZM2.27264 0.207031C1.02936 0.207031 0.0214844 1.21491 0.0214844 2.45819H3.02148C3.02148 2.87176 2.68622 3.20703 2.27264 3.20703V0.207031ZM12.5856 10.52C12.5856 4.82431 7.96834 0.207031 2.27264 0.207031V3.20703C6.31149 3.20703 9.58562 6.48116 9.58562 10.52H12.5856ZM10.3345 12.7712C11.5777 12.7712 12.5856 11.7633 12.5856 10.52H9.58562C9.58562 10.1064 9.92089 9.77117 10.3345 9.77117V12.7712ZM8.0833 10.52C8.0833 11.7633 9.09118 12.7712 10.3345 12.7712V9.77117C10.748 9.77117 11.0833 10.1064 11.0833 10.52H8.0833ZM2.27264 4.70935C5.48178 4.70935 8.0833 7.31087 8.0833 10.52H11.0833C11.0833 5.65402 7.13864 1.70935 2.27264 1.70935L2.27264 4.70935ZM0.0214844 2.45819C0.0214844 3.70147 1.02936 4.70935 2.27264 4.70935V1.70935C2.68622 1.70935 3.02148 2.04462 3.02148 2.45819H0.0214844ZM2.27264 3.41641C1.02936 3.41641 0.0214844 4.42429 0.0214844 5.66757H3.02148C3.02148 6.08114 2.68622 6.41641 2.27264 6.41641V3.41641ZM9.37555 10.5193C9.37555 6.59649 6.19547 3.41641 2.27264 3.41641V6.41641C4.53861 6.41641 6.37555 8.25334 6.37555 10.5193H9.37555ZM7.12439 12.7705C8.36767 12.7705 9.37555 11.7626 9.37555 10.5193H6.37555C6.37555 10.1057 6.71081 9.77047 7.12439 9.77047V12.7705ZM4.87323 10.5193C4.87323 11.7626 5.88111 12.7705 7.12439 12.7705V9.77047C7.53796 9.77047 7.87323 10.1057 7.87323 10.5193H4.87323ZM2.27264 7.91873C3.70891 7.91873 4.87323 9.08305 4.87323 10.5193H7.87323C7.87323 7.42619 5.36576 4.91873 2.27264 4.91873V7.91873ZM0.0214844 5.66757C0.0214844 6.91085 1.02936 7.91873 2.27264 7.91873V4.91873C2.68622 4.91873 3.02148 5.25399 3.02148 5.66757H0.0214844ZM6.06799 10.9157C6.06799 8.60056 4.19123 6.72381 1.87614 6.72381V9.72381C2.53438 9.72381 3.06799 10.2574 3.06799 10.9157H6.06799ZM1.84268 12.4157H4.56799V9.41566H1.84268V12.4157ZM0.376257 8.20516L0.342794 10.897L3.34256 10.9343L3.37603 8.24245L0.376257 8.20516Z" fill="#162D58" mask="url(#path-1-outside-1)"/>
</svg>
