<svg width="41" height="41" viewBox="0 0 41 41" fill="none" xmlns="http://www.w3.org/2000/svg">
<path fill-rule="evenodd" clip-rule="evenodd" d="M0.5625 4.28125C0.5625 2.34825 2.1295 0.78125 4.0625 0.78125C23.9244 0.78125 40.0257 16.8825 40.0257 36.7444C40.0257 38.6774 38.4587 40.2444 36.5257 40.2444C34.5927 40.2444 33.0257 38.6774 33.0257 36.7444C33.0257 20.7485 20.0584 7.78125 4.0625 7.78125C2.1295 7.78125 0.5625 6.21425 0.5625 4.28125ZM0.5625 18.6067C0.5625 16.6737 2.1295 15.1067 4.0625 15.1067C16.1387 15.1067 25.9284 24.8965 25.9284 36.9727C25.9284 38.9057 24.3614 40.4727 22.4284 40.4727C20.4954 40.4727 18.9284 38.9057 18.9284 36.9727C18.9284 28.7624 12.2727 22.1067 4.0625 22.1067C2.1295 22.1067 0.5625 20.5397 0.5625 18.6067ZM1.84542 29.3608C7.47309 29.3608 12.0352 33.923 12.0352 39.5506H1.71875L1.84542 29.3608Z" fill="#9B51E0"/>
</svg>
